# xmcd
#
# Track frame offsets:
#	150
#	13095
#	30303
#	45183
#	59354
#	72967
#	94814
#	105055
#	115994
#	132714
#	142314
#	158072
#	175196
#	191248
#	215718
#
# Disc length: 3255 seconds
#
# Revision: 0
# Processed by: cddbd v1.5.2PL0 Copyright (c) Steve Scherf et al.
# Submitted via: audiograbber 1.83.01
#
DISCID=d50cb50f
DTITLE=Erin Hay - Honky Tonk Heaven
DYEAR=2000
DGENRE=Country
TTITLE0=Youre A Lesson I았e Already Learned
TTITLE1=There Goes My Everything
TTITLE2=Bad Luck
TTITLE3=Honky Tonk Heaven
TTITLE4=Poison Of Your Kiss
TTITLE5=Cheater압 Moon
TTITLE6=Alone With You
TTITLE7=Honky Tonbk Girl
TTITLE8=Autumn압 Not That Cold
TTITLE9=Your Good Girl압 Gonna Go Bad
TTITLE10=If The Phone Don앖 Ring
TTITLE11=Mirror Mirror
TTITLE12=My Hands Are Full
TTITLE13=I Got The Blues Again
TTITLE14=Data Track
EXTD=
EXTT0=
EXTT1=
EXTT2=
EXTT3=
EXTT4=
EXTT5=
EXTT6=
EXTT7=
EXTT8=
EXTT9=
EXTT10=
EXTT11=
EXTT12=
EXTT13=
EXTT14=
PLAYORDER=
